<svg width="48" height="48" viewBox="0 0 48 48" fill="none" xmlns="http://www.w3.org/2000/svg">
<circle cx="24" cy="24" r="24" fill="#F6F7FF"/>
<path d="M24 38.0625C31.7665 38.0625 38.0625 31.7665 38.0625 24C38.0625 16.2335 31.7665 9.9375 24 9.9375C16.2335 9.9375 9.9375 16.2335 9.9375 24C9.9375 31.7665 16.2335 38.0625 24 38.0625Z" fill="url(#paint0_linear_2135_50232)"/>
<path d="M26.9876 16.1875H21.0188C18.3563 16.1875 16.1938 18.35 16.1938 21.0125V26.9813C16.1938 29.6438 18.3563 31.8062 21.0188 31.8062H26.9876C29.6501 31.8062 31.8126 29.6438 31.8126 26.9813V21.0125C31.8126 18.35 29.6501 16.1875 26.9876 16.1875ZM30.0688 26.9875C30.0688 28.6875 28.6876 30.075 26.9813 30.075H21.0126C19.3126 30.075 17.9251 28.6937 17.9251 26.9875V21.0188C17.9251 19.3188 19.3063 17.9312 21.0126 17.9312H26.9813C28.6813 17.9312 30.0688 19.3125 30.0688 21.0188V26.9875Z" fill="white"/>
<path d="M24.0001 20.0059C21.8001 20.0059 20.0063 21.7996 20.0063 23.9996C20.0063 26.1996 21.8001 27.9934 24.0001 27.9934C26.2001 27.9934 27.9938 26.1996 27.9938 23.9996C27.9938 21.7996 26.2001 20.0059 24.0001 20.0059ZM24.0001 26.4246C22.6626 26.4246 21.5751 25.3371 21.5751 23.9996C21.5751 22.6621 22.6626 21.5746 24.0001 21.5746C25.3376 21.5746 26.4251 22.6621 26.4251 23.9996C26.4251 25.3371 25.3376 26.4246 24.0001 26.4246Z" fill="white"/>
<path d="M28.2983 20.4437C28.6662 20.3837 28.9159 20.0369 28.856 19.6689C28.7961 19.301 28.4492 19.0513 28.0813 19.1112C27.7133 19.1711 27.4636 19.518 27.5235 19.8859C27.5835 20.2539 27.9303 20.5036 28.2983 20.4437Z" fill="white"/>
<defs>
<linearGradient id="paint0_linear_2135_50232" x1="13.2924" y1="34.7076" x2="33.2768" y2="14.7232" gradientUnits="userSpaceOnUse">
<stop stop-color="#FEE411"/>
<stop offset="0.052" stop-color="#FEDB16"/>
<stop offset="0.138" stop-color="#FEC125"/>
<stop offset="0.248" stop-color="#FE983D"/>
<stop offset="0.376" stop-color="#FE5F5E"/>
<stop offset="0.5" stop-color="#FE2181"/>
<stop offset="1" stop-color="#9000DC"/>
</linearGradient>
</defs>
</svg>
