<svg width="48" height="48" viewBox="0 0 48 48" fill="none" xmlns="http://www.w3.org/2000/svg">
<circle cx="24" cy="24" r="24" fill="#F6F7FF"/>
<g clip-path="url(#clip0_2135_50241)">
<path d="M24 40C32.8366 40 40 32.8366 40 24C40 15.1634 32.8366 8 24 8C15.1634 8 8 15.1634 8 24C8 32.8366 15.1634 40 24 40Z" fill="#007AB9"/>
<path d="M33.5599 25.2878V31.8842H29.7354V25.7299C29.7354 24.1846 29.1832 23.1293 27.7985 23.1293C26.7418 23.1293 26.114 23.8397 25.8368 24.5277C25.7361 24.7735 25.7102 25.1149 25.7102 25.4598V31.8839H21.8854C21.8854 31.8839 21.9368 21.4605 21.8854 20.3815H25.7104V22.0115C25.7027 22.0243 25.6919 22.0369 25.6851 22.0492H25.7104V22.0115C26.2187 21.2294 27.1251 20.1114 29.1573 20.1114C31.6734 20.1114 33.5599 21.7554 33.5599 25.2878ZM17.8844 14.8369C16.5761 14.8369 15.7202 15.6957 15.7202 16.824C15.7202 17.9284 16.5513 18.812 17.8342 18.812H17.859C19.193 18.812 20.0224 17.9284 20.0224 16.824C19.997 15.6957 19.193 14.8369 17.8844 14.8369ZM15.9475 31.8842H19.7708V20.3815H15.9475V31.8842Z" fill="#F1F2F2"/>
</g>
<defs>
<clipPath id="clip0_2135_50241">
<rect width="32" height="32" fill="white" transform="translate(8 8)"/>
</clipPath>
</defs>
</svg>
