<svg width="48" height="48" viewBox="0 0 48 48" fill="none" xmlns="http://www.w3.org/2000/svg">
<circle cx="24" cy="24" r="24" fill="#F6F7FF"/>
<g clip-path="url(#clip0_2135_50210)">
<path d="M8.68089 40C8.57614 40 8.47281 39.9758 8.37893 39.9294C8.28505 39.8829 8.20316 39.8154 8.13961 39.7322C8.07607 39.6489 8.03259 39.5521 8.01256 39.4493C7.99254 39.3465 7.9965 39.2404 8.02414 39.1394L10.1044 31.5427C8.80926 29.2006 8.12639 26.5513 8.12739 23.8618C8.13107 15.1155 15.2487 8 23.9943 8C28.2363 8.00169 32.2221 9.65406 35.2179 12.6521C38.2133 15.6504 39.8623 19.636 39.8611 23.8745C39.8571 32.6211 32.7394 39.7371 23.9943 39.7371H23.9874C21.4331 39.7361 18.9006 39.1135 16.6457 37.9343L8.85345 39.9778C8.79632 39.9927 8.73826 40 8.68089 40Z" fill="#E5E5E5"/>
<path d="M8.68066 39.3188L10.8349 31.4519C9.5061 29.1494 8.8071 26.5375 8.80804 23.8618C8.81154 15.4909 15.6235 8.68066 23.9941 8.68066C28.0561 8.68235 31.8689 10.2634 34.736 13.133C37.603 16.0027 39.1814 19.8171 39.1799 23.874C39.1762 32.2446 32.3632 39.0559 23.9941 39.0559C23.9936 39.0559 23.9944 39.0559 23.9941 39.0559H23.9875C21.446 39.0549 18.9489 38.4175 16.7309 37.2077L8.68066 39.3188ZM17.1038 34.4594L17.5649 34.7327C19.5024 35.8825 21.7239 36.4907 23.9892 36.4919H23.9941C30.9507 36.4919 36.6128 30.8308 36.6157 23.873C36.6169 20.5012 35.3054 17.3305 32.9224 14.9455C30.539 12.5605 27.3703 11.2463 23.9987 11.2449C17.0366 11.2449 11.3747 16.9052 11.372 23.8628C11.371 26.247 12.038 28.5688 13.3017 30.5781L13.602 31.0556L12.3266 35.7119L17.1038 34.4594Z" fill="white"/>
<path d="M9.20898 38.7895L11.2888 31.1945C10.0056 28.9719 9.33105 26.4502 9.3318 23.8674C9.33492 15.7864 15.9114 9.21191 23.9917 9.21191C27.9135 9.2136 31.5945 10.74 34.3618 13.5102C37.1299 16.2805 38.6533 19.9629 38.6518 23.8789C38.6484 31.9602 32.0718 38.5354 23.9924 38.5354C23.9917 38.5354 23.9927 38.5354 23.9924 38.5354H23.9858C21.5325 38.5344 19.1215 37.9187 16.9805 36.7517L9.20898 38.7895Z" fill="#64B161"/>
<path d="M8.68066 39.3188L10.8349 31.4519C9.5061 29.1494 8.8071 26.5375 8.80804 23.8618C8.81154 15.4909 15.6235 8.68066 23.9941 8.68066C28.0561 8.68235 31.8689 10.2634 34.736 13.133C37.603 16.0027 39.1814 19.8171 39.1799 23.874C39.1762 32.2446 32.3632 39.0559 23.9941 39.0559C23.9936 39.0559 23.9944 39.0559 23.9941 39.0559H23.9875C21.446 39.0549 18.9489 38.4175 16.7309 37.2077L8.68066 39.3188ZM17.1038 34.4594L17.5649 34.7327C19.5024 35.8825 21.7239 36.4907 23.9892 36.4919H23.9941C30.9507 36.4919 36.6128 30.8308 36.6157 23.873C36.6169 20.5012 35.3054 17.3305 32.9224 14.9455C30.539 12.5605 27.3703 11.2463 23.9987 11.2449C17.0366 11.2449 11.3747 16.9052 11.372 23.8628C11.371 26.247 12.038 28.5688 13.3017 30.5781L13.602 31.0556L12.3266 35.7119L17.1038 34.4594Z" fill="white"/>
<path fill-rule="evenodd" clip-rule="evenodd" d="M20.1985 17.5152C19.9143 16.8833 19.615 16.8707 19.3445 16.8597C19.1233 16.8501 18.8702 16.8506 18.6175 16.8506C18.3645 16.8506 17.9534 16.9458 17.6057 17.3255C17.2578 17.7051 16.2773 18.6231 16.2773 20.49C16.2773 22.3572 17.6372 24.1612 17.8269 24.4146C18.0166 24.6677 20.4519 28.6213 24.3086 30.1423C27.5139 31.4065 28.1661 31.155 28.8618 31.0918C29.5577 31.0286 31.1067 30.1738 31.4228 29.2878C31.7393 28.4019 31.7393 27.6426 31.6443 27.4837C31.5493 27.3257 31.2964 27.2307 30.917 27.041C30.5377 26.8513 28.6722 25.9332 28.3242 25.8067C27.9763 25.68 27.7234 25.617 27.4705 25.9968C27.2173 26.3762 26.4907 27.2307 26.2693 27.4837C26.0478 27.7373 25.8264 27.7691 25.447 27.5792C25.0677 27.389 23.8455 26.9885 22.3958 25.6958C21.2678 24.6902 20.5061 23.448 20.2847 23.0682C20.0635 22.6888 20.281 22.5013 20.4514 22.294C20.7583 21.9207 21.2732 21.2496 21.3997 20.9966C21.5262 20.7432 21.4629 20.5218 21.3682 20.3318C21.2732 20.1421 20.5357 18.2657 20.1985 17.5152Z" fill="white"/>
</g>
<defs>
<clipPath id="clip0_2135_50210">
<rect width="32" height="32" fill="white" transform="translate(8 8)"/>
</clipPath>
</defs>
</svg>
